<?xml version="1.0" encoding="UTF-8"?>
<svg id="Layer_1" xmlns="http://www.w3.org/2000/svg" version="1.1" viewBox="0 0 1149.1 890.39">
  <!-- Generator: Adobe Illustrator 29.5.1, SVG Export Plug-In . SVG Version: 2.1.0 Build 141)  -->
  <defs>
    <style>
      .st0 {
        fill: none;
        stroke: #fff;
        stroke-miterlimit: 10;
        stroke-width: 2.82px;
      }

      .st1 {
        fill: #fff;
      }
    </style>
  </defs>
  <line class="st0" x1="315.77" y1="570.12" x2="627.87" y2="570.12"/>
  <line class="st0" x1="943.79" y1="570.12" x2="998.83" y2="570.12"/>
  <g>
    <g>
      <path class="st1" d="M248.95,496.21c-7.45-7.44-16.44-12.43-25.94-14.97-14.49-3.86-30.04.89-40.64,11.49l-14.46,14.33v-101.08l-18.3,17.72v113.63l.11.05c0,14.87,5.64,29.73,16.97,41.07,7.45,7.45,16.48,12.43,25.98,14.97,14.49,3.87,29.94-.89,40.54-11.49l31.11-31.11c4.49-19.01-.58-39.82-15.36-54.62ZM207.83,591.77c-21.83,0-39.59-24.42-39.59-54.44s17.76-54.46,39.59-54.46,39.6,24.42,39.6,54.44-17.76,54.46-39.6,54.46Z"/>
      <path class="st1" d="M190.51,396.34l26.25-26.28h-3.23l-22.97,23.03-.02-97.44-17.61,17.39c-.81,3.41-.71,7.52-.97,11v160.27l18.53-18.81.02-69.15Z"/>
    </g>
    <g>
      <path class="st1" d="M646.27,553.73h8.06c3.38,0,6.07,1.08,8.06,3.25,1.99,2.17,2.99,4.87,2.99,8.1s-1,6.02-2.99,8.18c-2,2.16-4.68,3.24-8.06,3.24h-8.06v-22.76ZM649,574.02h5.27c2.56,0,4.6-.83,6.13-2.5s2.29-3.8,2.29-6.41-.76-4.7-2.29-6.37-3.57-2.5-6.13-2.5h-5.27v17.79Z"/>
      <path class="st1" d="M686.56,553.73v2.37h-10.5v7.45h10.14v2.37h-10.14v8.06h10.86v2.5h-13.59v-22.76h13.23Z"/>
      <path class="st1" d="M702.88,571.84l3.19-8.52,3.9-9.59h2.89v.39l-9.46,22.47h-1.14l-9.53-22.47v-.39h2.89l3.93,9.59,3.28,8.52h.03Z"/>
      <path class="st1" d="M733.09,553.73v2.37h-10.5v7.45h10.14v2.37h-10.14v8.06h10.86v2.5h-13.59v-22.76h13.23Z"/>
      <path class="st1" d="M744.34,553.73v20.32h10.73v2.44h-13.46v-22.76h2.73Z"/>
      <path class="st1" d="M782.61,565.11c0,3.45-1.07,6.26-3.22,8.45-2.15,2.19-4.93,3.28-8.36,3.28s-6.04-1.07-8.23-3.22c-2.19-2.15-3.28-4.99-3.28-8.52s1.11-6.41,3.32-8.55c2.21-2.15,4.95-3.22,8.23-3.22s6.02,1.08,8.23,3.24,3.32,5,3.32,8.54ZM762.25,565.11c0,2.73.83,4.95,2.5,6.67,1.67,1.71,3.76,2.57,6.28,2.57s4.64-.86,6.32-2.57c1.68-1.71,2.52-3.93,2.52-6.67s-.83-4.96-2.5-6.7c-1.67-1.73-3.77-2.6-6.31-2.6s-4.61.86-6.29,2.58c-1.68,1.72-2.52,3.96-2.52,6.71Z"/>
      <path class="st1" d="M793.21,576.46h-2.7v-22.76h9.1c2.38,0,4.31.74,5.77,2.23,1.46,1.49,2.19,3.34,2.19,5.58s-.74,4.05-2.21,5.53-3.39,2.21-5.75,2.21h-6.41v7.22ZM793.17,566.8h6.44c1.52,0,2.79-.5,3.8-1.51,1.02-1.01,1.53-2.29,1.53-3.85s-.5-2.81-1.5-3.82c-1-1.01-2.28-1.51-3.84-1.51h-6.44v10.7Z"/>
      <path class="st1" d="M825.33,566.41l9.36-12.71h1.04v22.79h-2.73v-16.42l-7.48,10.27h-.42l-7.48-10.27v16.42h-2.73v-22.79h1.07l9.36,12.71Z"/>
      <path class="st1" d="M858.27,553.73v2.37h-10.5v7.45h10.14v2.37h-10.14v8.06h10.86v2.5h-13.59v-22.76h13.23Z"/>
      <path class="st1" d="M884.12,576.52l-14.86-17.23.23,6.24v10.96h-2.7v-22.83h.94l14.83,17.23-.29-6.54v-10.67h2.73v22.83h-.88Z"/>
      <path class="st1" d="M898.88,556.17h-7.02v-2.44h16.68v2.44h-7.02v20.32h-2.63v-20.32Z"/>
      <path class="st1" d="M913.74,570.28h2.63c.04.95.42,1.77,1.14,2.44.72.67,1.53,1.14,2.44,1.4.91.26,1.88.39,2.89.39,1.04-.04,1.98-.18,2.83-.42.85-.24,1.61-.69,2.29-1.37.68-.67,1.04-1.53,1.06-2.57,0-.39-.03-.75-.1-1.09-.07-.34-.19-.63-.37-.88-.18-.25-.36-.47-.52-.65-.16-.18-.41-.35-.75-.49s-.6-.25-.78-.34c-.18-.09-.5-.17-.96-.26s-.78-.15-.98-.18c-.2-.03-.55-.08-1.07-.15-.52-.07-.86-.11-1.01-.13-1.17-.13-2.19-.3-3.07-.5s-1.74-.53-2.58-.96c-.85-.43-1.5-1.03-1.95-1.8s-.68-1.7-.68-2.78c0-1.43.42-2.66,1.25-3.69.83-1.03,1.86-1.77,3.09-2.23s2.53-.68,3.92-.68c1.02-.02,2.01.09,2.97.33s1.86.6,2.68,1.09c.82.49,1.5,1.15,2.02,1.98.52.83.8,1.78.85,2.85h-2.54c-.09-.91-.45-1.66-1.09-2.26-.64-.6-1.37-1-2.18-1.22s-1.7-.33-2.65-.33c-1.5.07-2.81.43-3.93,1.09-1.13.66-1.69,1.67-1.69,3.04,0,.33.04.63.11.91.08.28.16.53.24.75.09.22.24.42.46.6.22.18.38.34.5.46s.35.24.68.36.57.21.72.26c.14.05.42.11.83.18.41.07.68.11.8.13s.41.06.88.13c.47.06.74.1.83.1,1.08.13,1.98.26,2.68.39s1.48.34,2.33.63c.84.29,1.51.65,2,1.07.49.42.9,1,1.24,1.72.33.73.5,1.58.5,2.55,0,1.54-.46,2.83-1.38,3.87-.92,1.04-2.02,1.77-3.28,2.18-1.27.41-2.65.64-4.15.68-1.08.02-2.15-.09-3.19-.34-1.04-.25-2.01-.63-2.89-1.15-.89-.52-1.61-1.22-2.16-2.1s-.85-1.88-.89-3.01Z"/>
    </g>
    <g>
      <path class="st1" d="M373.3,526.99l-55.2-.47v-107.38h47.99c10.13.26,18.55,3.08,25.27,8.45,3.31,2.64,5.89,5.7,7.75,9.19,1.86,3.49,2.79,7.25,2.79,11.28,0,5.74-1.89,10.92-5.66,15.54-3.77,4.63-8.76,8.15-14.96,10.58,8.22,1.45,14.95,4.56,20.2,9.34,5.25,4.78,7.87,10.35,7.87,16.71,0,3.52-.87,6.84-2.6,9.96-1.73,3.13-4.15,5.91-7.25,8.33-3.31,2.58-7.21,4.64-11.71,6.16-4.5,1.52-9.33,2.29-14.5,2.29ZM365.08,470.39c5.22,0,9.59-1.86,13.1-5.58,3.51-3.72,5.27-8.17,5.27-13.33v-3.49c0-1.45-.34-3.15-1.01-5.12-2.02-4.75-5.14-8.49-9.38-11.2-4.24-2.71-8.89-4.07-13.96-4.07h-22.25v42.8h28.22ZM372.06,518.54c5.01,0,9.35-1.72,13.03-5.16,3.67-3.44,5.58-7.76,5.74-12.99v-.46c-.21-6.05-2.44-11.07-6.71-15.08-4.26-4-9.34-6.01-15.23-6.01h-32.02v39.7h35.2Z"/>
      <path class="st1" d="M431.25,526.22v-107.07h18.68v98.62h55.9v8.37l-74.58.08Z"/>
      <path class="st1" d="M628.75,526.6h-20.31l-15.2-35.12h-46.98l-16.9,35.12h-9.38l51.79-107.46h10.47l46.52,107.46ZM589.6,483.11l-18.61-42.95-20.7,42.95h39.31Z"/>
      <path class="st1" d="M743.3,526.76h-8.37l-80.87-81.1v80.79h-8.45l.08-107.85h8.37c0,.05,27.14,27.09,81.41,81.1v-81.02l8.61-.08-.78,108.16Z"/>
      <path class="st1" d="M826.44,527.92c-11.16,0-21.33-2.48-30.51-7.44-9.18-4.96-16.49-11.6-21.94-19.93-5.45-8.32-8.18-17.55-8.18-27.68s2.73-19.36,8.18-27.68c5.45-8.32,12.77-14.96,21.94-19.93,9.17-4.96,19.34-7.44,30.51-7.44,7.39,0,14.39,1.14,21.01,3.41,6.62,2.27,12.58,5.43,17.91,9.46v24.27c-3.21-8.89-8.28-16.09-15.23-21.59-6.95-5.5-14.85-8.26-23.69-8.26-7.7,0-14.73,2.12-21.09,6.36s-11.42,9.94-15.2,17.1c-3.77,7.16-5.66,15.08-5.66,23.76s1.89,16.61,5.66,23.76c3.77,7.16,8.84,12.86,15.2,17.1,6.36,4.24,13.39,6.36,21.09,6.36,8.84,0,16.73-2.75,23.69-8.26,6.95-5.5,12.03-12.73,15.23-21.67v25.35c-5.32,4.08-11.29,7.26-17.91,9.54-6.62,2.27-13.62,3.41-21.01,3.41Z"/>
      <path class="st1" d="M935.48,527.69c-9.98,0-19.05-2.47-27.21-7.4-8.17-4.94-14.68-11.55-19.54-19.85-4.86-8.3-7.29-17.51-7.29-27.64s2.43-19.34,7.29-27.64c4.86-8.3,11.37-14.91,19.54-19.85,8.17-4.94,17.24-7.4,27.21-7.4s18.98,2.47,27.17,7.4c8.19,4.94,14.72,11.55,19.58,19.85,4.86,8.3,7.29,17.51,7.29,27.64s-2.43,19.34-7.29,27.64c-4.86,8.3-11.39,14.91-19.58,19.85-8.19,4.94-17.25,7.4-27.17,7.4ZM942.85,517.15c4.34,0,8.5-.96,12.48-2.87,5.63-2.95,9.94-7.33,12.91-13.14,2.97-5.81,4.46-12.31,4.46-19.5,0-7.96-1.94-16.15-5.81-24.58-4.45-8.94-10.23-15.93-17.37-20.97-7.13-5.04-14.4-7.56-21.79-7.56-4.34,0-8.53.96-12.56,2.87-5.63,2.95-9.92,7.33-12.87,13.14-2.95,5.82-4.42,12.32-4.42,19.5,0,7.96,1.94,16.15,5.81,24.58,4.45,8.94,10.23,15.93,17.37,20.97,7.13,5.04,14.39,7.56,21.79,7.56Z"/>
    </g>
  </g>
</svg>